<mxfile host="app.diagrams.net" modified="2023-03-25T13:29:23.405Z" agent="Mozilla/5.0 (Windows NT 10.0; Win64; x64) AppleWebKit/537.36 (KHTML, like Gecko) Chrome/111.0.0.0 Safari/537.36" etag="rY_Lr5MlfbnL2asysFyb" version="21.1.1" type="github">
  <diagram name="Page-1" id="e7e014a7-5840-1c2e-5031-d8a46d1fe8dd">
    <mxGraphModel dx="1238" dy="614" grid="1" gridSize="10" guides="1" tooltips="1" connect="1" arrows="1" fold="1" page="1" pageScale="1" pageWidth="1169" pageHeight="826" background="none" math="0" shadow="0">
      <root>
        <mxCell id="0" />
        <mxCell id="1" parent="0" />
        <mxCell id="2" value="Client" style="swimlane;whiteSpace=wrap" parent="1" vertex="1">
          <mxGeometry x="164.5" y="128" width="280" height="1122" as="geometry" />
        </mxCell>
        <mxCell id="3-zhwFimw2rGNXMDx7Io-56" style="edgeStyle=orthogonalEdgeStyle;rounded=0;orthogonalLoop=1;jettySize=auto;html=1;exitX=1;exitY=0.5;exitDx=0;exitDy=0;entryX=0.5;entryY=0;entryDx=0;entryDy=0;" edge="1" parent="2" source="5" target="3-zhwFimw2rGNXMDx7Io-55">
          <mxGeometry relative="1" as="geometry" />
        </mxCell>
        <mxCell id="5" value="" style="ellipse;shape=startState;fillColor=#000000;strokeColor=#ff0000;" parent="2" vertex="1">
          <mxGeometry x="57.25" y="32" width="35.5" height="40" as="geometry" />
        </mxCell>
        <mxCell id="3-zhwFimw2rGNXMDx7Io-55" value="Press Start" style="ellipse;whiteSpace=wrap;html=1;" vertex="1" parent="2">
          <mxGeometry x="102.75" y="92" width="74.5" height="28" as="geometry" />
        </mxCell>
        <mxCell id="3-zhwFimw2rGNXMDx7Io-59" value="Select&lt;br&gt;Destination" style="ellipse;whiteSpace=wrap;html=1;" vertex="1" parent="2">
          <mxGeometry x="92.75" y="152" width="94.5" height="58" as="geometry" />
        </mxCell>
        <mxCell id="3-zhwFimw2rGNXMDx7Io-65" value="Select&lt;br&gt;Payment" style="ellipse;whiteSpace=wrap;html=1;fillColor=rgb(255, 255, 255);strokeColor=rgb(0, 0, 0);fontColor=rgb(0, 0, 0);" vertex="1" parent="2">
          <mxGeometry x="92.75" y="302" width="94.5" height="58" as="geometry" />
        </mxCell>
        <mxCell id="3-zhwFimw2rGNXMDx7Io-79" value="Input Card" style="ellipse;whiteSpace=wrap;html=1;fillColor=rgb(255, 255, 255);strokeColor=rgb(0, 0, 0);fontColor=rgb(0, 0, 0);" vertex="1" parent="2">
          <mxGeometry x="92.75" y="462" width="94.5" height="58" as="geometry" />
        </mxCell>
        <mxCell id="3-zhwFimw2rGNXMDx7Io-106" value="Scan QR" style="ellipse;whiteSpace=wrap;html=1;fillColor=rgb(255, 255, 255);strokeColor=rgb(0, 0, 0);fontColor=rgb(0, 0, 0);" vertex="1" parent="2">
          <mxGeometry x="92.75" y="724" width="94.5" height="58" as="geometry" />
        </mxCell>
        <mxCell id="3" value="Machine" style="swimlane;whiteSpace=wrap" parent="1" vertex="1">
          <mxGeometry x="445" y="128" width="280" height="1122" as="geometry" />
        </mxCell>
        <mxCell id="3-zhwFimw2rGNXMDx7Io-57" value="Request Select&lt;br&gt;Destination" style="ellipse;whiteSpace=wrap;html=1;" vertex="1" parent="3">
          <mxGeometry x="92.5" y="52" width="94.5" height="58" as="geometry" />
        </mxCell>
        <mxCell id="3-zhwFimw2rGNXMDx7Io-64" value="" style="edgeStyle=orthogonalEdgeStyle;rounded=0;orthogonalLoop=1;jettySize=auto;html=1;" edge="1" parent="3" source="3-zhwFimw2rGNXMDx7Io-61" target="3-zhwFimw2rGNXMDx7Io-63">
          <mxGeometry relative="1" as="geometry" />
        </mxCell>
        <mxCell id="3-zhwFimw2rGNXMDx7Io-61" value="Processing&lt;br&gt;Destination" style="ellipse;whiteSpace=wrap;html=1;" vertex="1" parent="3">
          <mxGeometry x="92.5" y="210" width="94.5" height="58" as="geometry" />
        </mxCell>
        <mxCell id="3-zhwFimw2rGNXMDx7Io-63" value="Request Select&lt;br&gt;Payment" style="ellipse;whiteSpace=wrap;html=1;fillColor=rgb(255, 255, 255);strokeColor=rgb(0, 0, 0);fontColor=rgb(0, 0, 0);" vertex="1" parent="3">
          <mxGeometry x="92.75" y="302" width="94.5" height="58" as="geometry" />
        </mxCell>
        <mxCell id="3-zhwFimw2rGNXMDx7Io-70" style="edgeStyle=orthogonalEdgeStyle;rounded=0;orthogonalLoop=1;jettySize=auto;html=1;exitX=0.5;exitY=1;exitDx=0;exitDy=0;entryX=0.5;entryY=0;entryDx=0;entryDy=0;" edge="1" parent="3" source="3-zhwFimw2rGNXMDx7Io-67" target="3-zhwFimw2rGNXMDx7Io-69">
          <mxGeometry relative="1" as="geometry" />
        </mxCell>
        <mxCell id="3-zhwFimw2rGNXMDx7Io-67" value="Processing&lt;br&gt;Payment" style="ellipse;whiteSpace=wrap;html=1;fillColor=rgb(255, 255, 255);strokeColor=rgb(0, 0, 0);fontColor=rgb(0, 0, 0);" vertex="1" parent="3">
          <mxGeometry x="92.75" y="392" width="94.5" height="58" as="geometry" />
        </mxCell>
        <mxCell id="3-zhwFimw2rGNXMDx7Io-69" value="Method" style="rhombus;whiteSpace=wrap;html=1;fillColor=#fff2cc;strokeColor=#d6b656;" vertex="1" parent="3">
          <mxGeometry x="113" y="480" width="55" height="60" as="geometry" />
        </mxCell>
        <mxCell id="3-zhwFimw2rGNXMDx7Io-77" value="Request to&lt;br&gt;Input Card" style="ellipse;whiteSpace=wrap;html=1;fillColor=rgb(255, 255, 255);strokeColor=rgb(0, 0, 0);fontColor=rgb(0, 0, 0);" vertex="1" parent="3">
          <mxGeometry x="92.5" y="572" width="94.5" height="58" as="geometry" />
        </mxCell>
        <mxCell id="3-zhwFimw2rGNXMDx7Io-85" value="Process" style="rhombus;whiteSpace=wrap;html=1;fillColor=#fff2cc;strokeColor=#d6b656;" vertex="1" parent="3">
          <mxGeometry x="100.01" y="862" width="71.75" height="58" as="geometry" />
        </mxCell>
        <mxCell id="3-zhwFimw2rGNXMDx7Io-104" value="Processing &amp;amp; Create QR" style="ellipse;whiteSpace=wrap;html=1;fillColor=rgb(255, 255, 255);strokeColor=rgb(0, 0, 0);fontColor=rgb(0, 0, 0);" vertex="1" parent="3">
          <mxGeometry x="92" y="724" width="94.5" height="58" as="geometry" />
        </mxCell>
        <mxCell id="3-zhwFimw2rGNXMDx7Io-90" value="NO &lt;br&gt;[FAIL TO PAY]" style="text;html=1;strokeColor=none;fillColor=none;align=center;verticalAlign=middle;whiteSpace=wrap;rounded=0;" vertex="1" parent="3">
          <mxGeometry y="876" width="105.5" height="30" as="geometry" />
        </mxCell>
        <mxCell id="3-zhwFimw2rGNXMDx7Io-93" value="YES [SUCCESSFUL]" style="text;html=1;strokeColor=none;fillColor=none;align=center;verticalAlign=middle;whiteSpace=wrap;rounded=0;" vertex="1" parent="3">
          <mxGeometry x="113" y="942" width="105.5" height="30" as="geometry" />
        </mxCell>
        <mxCell id="4" value="Bank" style="swimlane;whiteSpace=wrap" parent="1" vertex="1">
          <mxGeometry x="724.5" y="128" width="280" height="1122" as="geometry" />
        </mxCell>
        <mxCell id="3-zhwFimw2rGNXMDx7Io-71" value="Authorize&lt;br&gt;Card" style="ellipse;whiteSpace=wrap;html=1;fillColor=rgb(255, 255, 255);strokeColor=rgb(0, 0, 0);fontColor=rgb(0, 0, 0);" vertex="1" parent="4">
          <mxGeometry x="92.75" y="152" width="94.5" height="58" as="geometry" />
        </mxCell>
        <mxCell id="3-zhwFimw2rGNXMDx7Io-73" value="Credit card" style="text;html=1;strokeColor=none;fillColor=none;align=center;verticalAlign=middle;whiteSpace=wrap;rounded=0;" vertex="1" parent="4">
          <mxGeometry x="-14.5" y="152" width="80" height="30" as="geometry" />
        </mxCell>
        <mxCell id="3-zhwFimw2rGNXMDx7Io-76" value="QR Code" style="text;html=1;strokeColor=none;fillColor=none;align=center;verticalAlign=middle;whiteSpace=wrap;rounded=0;" vertex="1" parent="4">
          <mxGeometry y="52" width="80" height="30" as="geometry" />
        </mxCell>
        <mxCell id="3-zhwFimw2rGNXMDx7Io-81" value="Banking system" style="ellipse;whiteSpace=wrap;html=1;fillColor=rgb(255, 255, 255);strokeColor=rgb(0, 0, 0);fontColor=rgb(0, 0, 0);" vertex="1" parent="4">
          <mxGeometry x="92.75" y="632" width="94.5" height="58" as="geometry" />
        </mxCell>
        <mxCell id="3-zhwFimw2rGNXMDx7Io-97" value="Check" style="rhombus;whiteSpace=wrap;html=1;fillColor=#fff2cc;strokeColor=#d6b656;" vertex="1" parent="4">
          <mxGeometry x="111.25" y="862" width="57.5" height="58" as="geometry" />
        </mxCell>
        <mxCell id="3-zhwFimw2rGNXMDx7Io-88" style="edgeStyle=orthogonalEdgeStyle;rounded=0;orthogonalLoop=1;jettySize=auto;html=1;exitX=0.5;exitY=1;exitDx=0;exitDy=0;entryX=0.5;entryY=0;entryDx=0;entryDy=0;" edge="1" parent="4" source="3-zhwFimw2rGNXMDx7Io-81" target="3-zhwFimw2rGNXMDx7Io-97">
          <mxGeometry relative="1" as="geometry" />
        </mxCell>
        <mxCell id="3-zhwFimw2rGNXMDx7Io-41" value="Digital Wallet" style="swimlane;whiteSpace=wrap;startSize=23;" vertex="1" parent="1">
          <mxGeometry x="1004.5" y="128" width="280" height="1122" as="geometry" />
        </mxCell>
        <mxCell id="3-zhwFimw2rGNXMDx7Io-100" value="" style="edgeStyle=orthogonalEdgeStyle;rounded=0;orthogonalLoop=1;jettySize=auto;html=1;" edge="1" parent="3-zhwFimw2rGNXMDx7Io-41" source="3-zhwFimw2rGNXMDx7Io-74" target="3-zhwFimw2rGNXMDx7Io-99">
          <mxGeometry relative="1" as="geometry" />
        </mxCell>
        <mxCell id="3-zhwFimw2rGNXMDx7Io-74" value="Authorize&lt;br&gt;Wallet" style="ellipse;whiteSpace=wrap;html=1;fillColor=rgb(255, 255, 255);strokeColor=rgb(0, 0, 0);fontColor=rgb(0, 0, 0);" vertex="1" parent="3-zhwFimw2rGNXMDx7Io-41">
          <mxGeometry x="85.5" y="52" width="94.5" height="58" as="geometry" />
        </mxCell>
        <mxCell id="3-zhwFimw2rGNXMDx7Io-103" value="" style="edgeStyle=orthogonalEdgeStyle;rounded=0;orthogonalLoop=1;jettySize=auto;html=1;" edge="1" parent="3-zhwFimw2rGNXMDx7Io-41" source="3-zhwFimw2rGNXMDx7Io-99" target="3-zhwFimw2rGNXMDx7Io-102">
          <mxGeometry relative="1" as="geometry" />
        </mxCell>
        <mxCell id="3-zhwFimw2rGNXMDx7Io-99" value="Processing &amp;amp; Create QR" style="ellipse;whiteSpace=wrap;html=1;fillColor=rgb(255, 255, 255);strokeColor=rgb(0, 0, 0);fontColor=rgb(0, 0, 0);" vertex="1" parent="3-zhwFimw2rGNXMDx7Io-41">
          <mxGeometry x="85.5" y="632" width="94.5" height="58" as="geometry" />
        </mxCell>
        <mxCell id="3-zhwFimw2rGNXMDx7Io-102" value="Processing &amp;amp; Create QR" style="ellipse;whiteSpace=wrap;html=1;fillColor=rgb(255, 255, 255);strokeColor=rgb(0, 0, 0);fontColor=rgb(0, 0, 0);" vertex="1" parent="3-zhwFimw2rGNXMDx7Io-41">
          <mxGeometry x="85.5" y="724" width="94.5" height="58" as="geometry" />
        </mxCell>
        <mxCell id="3-zhwFimw2rGNXMDx7Io-117" style="edgeStyle=orthogonalEdgeStyle;rounded=0;orthogonalLoop=1;jettySize=auto;html=1;exitX=0.5;exitY=1;exitDx=0;exitDy=0;entryX=0.5;entryY=0;entryDx=0;entryDy=0;" edge="1" parent="3-zhwFimw2rGNXMDx7Io-41" source="3-zhwFimw2rGNXMDx7Io-114" target="3-zhwFimw2rGNXMDx7Io-115">
          <mxGeometry relative="1" as="geometry" />
        </mxCell>
        <mxCell id="3-zhwFimw2rGNXMDx7Io-114" value="Check" style="rhombus;whiteSpace=wrap;html=1;fillColor=#fff2cc;strokeColor=#d6b656;" vertex="1" parent="3-zhwFimw2rGNXMDx7Io-41">
          <mxGeometry x="104" y="842" width="57.5" height="58" as="geometry" />
        </mxCell>
        <mxCell id="3-zhwFimw2rGNXMDx7Io-115" value="Digital Wallet&lt;br&gt;Transaction" style="ellipse;whiteSpace=wrap;html=1;fillColor=rgb(255, 255, 255);strokeColor=rgb(0, 0, 0);fontColor=rgb(0, 0, 0);" vertex="1" parent="3-zhwFimw2rGNXMDx7Io-41">
          <mxGeometry x="85.5" y="952" width="94.5" height="58" as="geometry" />
        </mxCell>
        <mxCell id="3-zhwFimw2rGNXMDx7Io-119" value="Pay with Wallet&lt;br&gt;[Haven&#39;t linked to Bank]" style="text;html=1;strokeColor=none;fillColor=none;align=center;verticalAlign=middle;whiteSpace=wrap;rounded=0;" vertex="1" parent="3-zhwFimw2rGNXMDx7Io-41">
          <mxGeometry x="125.5" y="900" width="144.5" height="30" as="geometry" />
        </mxCell>
        <mxCell id="3-zhwFimw2rGNXMDx7Io-120" value="Pay with Wallet&lt;br&gt;[Linked to Bank]" style="text;html=1;strokeColor=none;fillColor=none;align=center;verticalAlign=middle;whiteSpace=wrap;rounded=0;" vertex="1" parent="3-zhwFimw2rGNXMDx7Io-41">
          <mxGeometry x="-59" y="952" width="144.5" height="30" as="geometry" />
        </mxCell>
        <mxCell id="3-zhwFimw2rGNXMDx7Io-58" style="edgeStyle=orthogonalEdgeStyle;rounded=0;orthogonalLoop=1;jettySize=auto;html=1;exitX=1;exitY=0.5;exitDx=0;exitDy=0;entryX=0;entryY=0.5;entryDx=0;entryDy=0;" edge="1" parent="1" source="3-zhwFimw2rGNXMDx7Io-55" target="3-zhwFimw2rGNXMDx7Io-57">
          <mxGeometry relative="1" as="geometry" />
        </mxCell>
        <mxCell id="3-zhwFimw2rGNXMDx7Io-60" style="edgeStyle=orthogonalEdgeStyle;rounded=0;orthogonalLoop=1;jettySize=auto;html=1;exitX=0.5;exitY=1;exitDx=0;exitDy=0;entryX=1;entryY=0.5;entryDx=0;entryDy=0;" edge="1" parent="1" source="3-zhwFimw2rGNXMDx7Io-57" target="3-zhwFimw2rGNXMDx7Io-59">
          <mxGeometry relative="1" as="geometry" />
        </mxCell>
        <mxCell id="3-zhwFimw2rGNXMDx7Io-62" style="edgeStyle=orthogonalEdgeStyle;rounded=0;orthogonalLoop=1;jettySize=auto;html=1;exitX=0.5;exitY=1;exitDx=0;exitDy=0;entryX=0;entryY=0.5;entryDx=0;entryDy=0;" edge="1" parent="1" source="3-zhwFimw2rGNXMDx7Io-59" target="3-zhwFimw2rGNXMDx7Io-61">
          <mxGeometry relative="1" as="geometry" />
        </mxCell>
        <mxCell id="3-zhwFimw2rGNXMDx7Io-66" value="" style="edgeStyle=orthogonalEdgeStyle;rounded=0;orthogonalLoop=1;jettySize=auto;html=1;" edge="1" parent="1" source="3-zhwFimw2rGNXMDx7Io-63" target="3-zhwFimw2rGNXMDx7Io-65">
          <mxGeometry relative="1" as="geometry" />
        </mxCell>
        <mxCell id="3-zhwFimw2rGNXMDx7Io-68" value="" style="edgeStyle=orthogonalEdgeStyle;rounded=0;orthogonalLoop=1;jettySize=auto;html=1;entryX=0;entryY=0.5;entryDx=0;entryDy=0;" edge="1" parent="1" source="3-zhwFimw2rGNXMDx7Io-65" target="3-zhwFimw2rGNXMDx7Io-67">
          <mxGeometry relative="1" as="geometry">
            <Array as="points">
              <mxPoint x="305" y="549" />
            </Array>
          </mxGeometry>
        </mxCell>
        <mxCell id="3-zhwFimw2rGNXMDx7Io-72" style="edgeStyle=orthogonalEdgeStyle;rounded=0;orthogonalLoop=1;jettySize=auto;html=1;exitX=1;exitY=0.5;exitDx=0;exitDy=0;entryX=0;entryY=0.5;entryDx=0;entryDy=0;" edge="1" parent="1" source="3-zhwFimw2rGNXMDx7Io-69" target="3-zhwFimw2rGNXMDx7Io-71">
          <mxGeometry relative="1" as="geometry">
            <Array as="points">
              <mxPoint x="700" y="639" />
              <mxPoint x="700" y="310" />
            </Array>
          </mxGeometry>
        </mxCell>
        <mxCell id="3-zhwFimw2rGNXMDx7Io-75" style="edgeStyle=orthogonalEdgeStyle;rounded=0;orthogonalLoop=1;jettySize=auto;html=1;exitX=1;exitY=0.5;exitDx=0;exitDy=0;entryX=0;entryY=0.5;entryDx=0;entryDy=0;" edge="1" parent="1" source="3-zhwFimw2rGNXMDx7Io-69" target="3-zhwFimw2rGNXMDx7Io-74">
          <mxGeometry relative="1" as="geometry">
            <Array as="points">
              <mxPoint x="700" y="639" />
              <mxPoint x="700" y="210" />
            </Array>
          </mxGeometry>
        </mxCell>
        <mxCell id="3-zhwFimw2rGNXMDx7Io-78" value="" style="edgeStyle=orthogonalEdgeStyle;rounded=0;orthogonalLoop=1;jettySize=auto;html=1;exitX=0.5;exitY=1;exitDx=0;exitDy=0;" edge="1" parent="1" source="3-zhwFimw2rGNXMDx7Io-71" target="3-zhwFimw2rGNXMDx7Io-77">
          <mxGeometry relative="1" as="geometry">
            <Array as="points">
              <mxPoint x="865" y="729" />
            </Array>
          </mxGeometry>
        </mxCell>
        <mxCell id="3-zhwFimw2rGNXMDx7Io-80" value="" style="edgeStyle=orthogonalEdgeStyle;rounded=0;orthogonalLoop=1;jettySize=auto;html=1;" edge="1" parent="1" source="3-zhwFimw2rGNXMDx7Io-77" target="3-zhwFimw2rGNXMDx7Io-79">
          <mxGeometry relative="1" as="geometry">
            <Array as="points">
              <mxPoint x="410" y="729" />
              <mxPoint x="410" y="619" />
            </Array>
          </mxGeometry>
        </mxCell>
        <mxCell id="3-zhwFimw2rGNXMDx7Io-82" value="" style="edgeStyle=orthogonalEdgeStyle;rounded=0;orthogonalLoop=1;jettySize=auto;html=1;" edge="1" parent="1" source="3-zhwFimw2rGNXMDx7Io-79" target="3-zhwFimw2rGNXMDx7Io-81">
          <mxGeometry relative="1" as="geometry">
            <Array as="points">
              <mxPoint x="305" y="789" />
            </Array>
          </mxGeometry>
        </mxCell>
        <mxCell id="3-zhwFimw2rGNXMDx7Io-89" style="edgeStyle=orthogonalEdgeStyle;rounded=0;orthogonalLoop=1;jettySize=auto;html=1;entryX=0;entryY=0.5;entryDx=0;entryDy=0;fillColor=#f8cecc;strokeColor=#b85450;strokeWidth=2;exitX=0;exitY=0.5;exitDx=0;exitDy=0;" edge="1" parent="1" source="3-zhwFimw2rGNXMDx7Io-85" target="3-zhwFimw2rGNXMDx7Io-65">
          <mxGeometry relative="1" as="geometry">
            <mxPoint x="520" y="1020" as="sourcePoint" />
          </mxGeometry>
        </mxCell>
        <mxCell id="3-zhwFimw2rGNXMDx7Io-98" style="edgeStyle=orthogonalEdgeStyle;rounded=0;orthogonalLoop=1;jettySize=auto;html=1;exitX=0;exitY=0.5;exitDx=0;exitDy=0;entryX=1;entryY=0.5;entryDx=0;entryDy=0;" edge="1" parent="1" source="3-zhwFimw2rGNXMDx7Io-97" target="3-zhwFimw2rGNXMDx7Io-85">
          <mxGeometry relative="1" as="geometry">
            <Array as="points">
              <mxPoint x="836" y="1020" />
            </Array>
          </mxGeometry>
        </mxCell>
        <mxCell id="3-zhwFimw2rGNXMDx7Io-105" value="" style="edgeStyle=orthogonalEdgeStyle;rounded=0;orthogonalLoop=1;jettySize=auto;html=1;" edge="1" parent="1" source="3-zhwFimw2rGNXMDx7Io-102" target="3-zhwFimw2rGNXMDx7Io-104">
          <mxGeometry relative="1" as="geometry" />
        </mxCell>
        <mxCell id="3-zhwFimw2rGNXMDx7Io-107" value="" style="edgeStyle=orthogonalEdgeStyle;rounded=0;orthogonalLoop=1;jettySize=auto;html=1;" edge="1" parent="1" source="3-zhwFimw2rGNXMDx7Io-104" target="3-zhwFimw2rGNXMDx7Io-106">
          <mxGeometry relative="1" as="geometry" />
        </mxCell>
        <mxCell id="3-zhwFimw2rGNXMDx7Io-113" value="" style="edgeStyle=orthogonalEdgeStyle;rounded=0;orthogonalLoop=1;jettySize=auto;html=1;entryX=0;entryY=0.5;entryDx=0;entryDy=0;" edge="1" parent="1" source="3-zhwFimw2rGNXMDx7Io-106" target="3-zhwFimw2rGNXMDx7Io-114">
          <mxGeometry relative="1" as="geometry">
            <mxPoint x="1137.25" y="970" as="targetPoint" />
            <Array as="points">
              <mxPoint x="305" y="940" />
              <mxPoint x="990" y="940" />
              <mxPoint x="990" y="999" />
            </Array>
          </mxGeometry>
        </mxCell>
        <mxCell id="3-zhwFimw2rGNXMDx7Io-118" style="edgeStyle=orthogonalEdgeStyle;rounded=0;orthogonalLoop=1;jettySize=auto;html=1;exitX=0.5;exitY=0;exitDx=0;exitDy=0;entryX=1;entryY=0.5;entryDx=0;entryDy=0;" edge="1" parent="1" source="3-zhwFimw2rGNXMDx7Io-114" target="3-zhwFimw2rGNXMDx7Io-81">
          <mxGeometry relative="1" as="geometry">
            <Array as="points">
              <mxPoint x="1137" y="940" />
              <mxPoint x="1040" y="940" />
              <mxPoint x="1040" y="789" />
            </Array>
          </mxGeometry>
        </mxCell>
        <mxCell id="3-zhwFimw2rGNXMDx7Io-121" style="edgeStyle=orthogonalEdgeStyle;rounded=0;orthogonalLoop=1;jettySize=auto;html=1;exitX=0;exitY=0.5;exitDx=0;exitDy=0;entryX=1;entryY=0.5;entryDx=0;entryDy=0;" edge="1" parent="1" source="3-zhwFimw2rGNXMDx7Io-115" target="3-zhwFimw2rGNXMDx7Io-97">
          <mxGeometry relative="1" as="geometry">
            <Array as="points">
              <mxPoint x="960" y="1109" />
              <mxPoint x="960" y="1019" />
            </Array>
          </mxGeometry>
        </mxCell>
        <mxCell id="3-zhwFimw2rGNXMDx7Io-91" value="Create Ticket" style="ellipse;whiteSpace=wrap;html=1;fillColor=rgb(255, 255, 255);strokeColor=rgb(0, 0, 0);fontColor=rgb(0, 0, 0);" vertex="1" parent="1">
          <mxGeometry x="533.63" y="1160" width="94.5" height="58" as="geometry" />
        </mxCell>
        <mxCell id="3-zhwFimw2rGNXMDx7Io-94" value="Receive Ticket" style="ellipse;whiteSpace=wrap;html=1;fillColor=rgb(255, 255, 255);strokeColor=rgb(0, 0, 0);fontColor=rgb(0, 0, 0);" vertex="1" parent="1">
          <mxGeometry x="391" y="1160" width="94.5" height="58" as="geometry" />
        </mxCell>
        <mxCell id="3-zhwFimw2rGNXMDx7Io-45" value="" style="ellipse;shape=endState;fillColor=#000000;strokeColor=#ff0000" vertex="1" parent="1">
          <mxGeometry x="287.5" y="1170" width="35" height="38" as="geometry" />
        </mxCell>
        <mxCell id="3-zhwFimw2rGNXMDx7Io-95" value="" style="edgeStyle=orthogonalEdgeStyle;rounded=0;orthogonalLoop=1;jettySize=auto;html=1;" edge="1" parent="1" source="3-zhwFimw2rGNXMDx7Io-91" target="3-zhwFimw2rGNXMDx7Io-94">
          <mxGeometry relative="1" as="geometry" />
        </mxCell>
        <mxCell id="3-zhwFimw2rGNXMDx7Io-92" style="edgeStyle=orthogonalEdgeStyle;rounded=0;orthogonalLoop=1;jettySize=auto;html=1;exitX=0.5;exitY=1;exitDx=0;exitDy=0;entryX=0.5;entryY=0;entryDx=0;entryDy=0;fillColor=#f8cecc;strokeColor=#b85450;strokeWidth=2;" edge="1" parent="1" source="3-zhwFimw2rGNXMDx7Io-85" target="3-zhwFimw2rGNXMDx7Io-91">
          <mxGeometry relative="1" as="geometry" />
        </mxCell>
        <mxCell id="3-zhwFimw2rGNXMDx7Io-96" style="edgeStyle=orthogonalEdgeStyle;rounded=0;orthogonalLoop=1;jettySize=auto;html=1;exitX=0;exitY=0.5;exitDx=0;exitDy=0;entryX=1;entryY=0.5;entryDx=0;entryDy=0;" edge="1" parent="1" source="3-zhwFimw2rGNXMDx7Io-94" target="3-zhwFimw2rGNXMDx7Io-45">
          <mxGeometry relative="1" as="geometry" />
        </mxCell>
      </root>
    </mxGraphModel>
  </diagram>
</mxfile>
